<svg width="36" height="36" viewBox="0 0 36 36" fill="none" xmlns="http://www.w3.org/2000/svg">
<rect x="1" y="1" width="34" height="34" rx="8" stroke="white" stroke-width="2"/>
<path fill-rule="evenodd" clip-rule="evenodd" d="M12.0621 26.7656V16.9977H13.8195V30.7501H16.3603L16.3816 26.8054H20.3562C21.2611 26.7965 22.1151 26.6617 22.9183 26.4013C23.7308 26.1408 24.4417 25.7636 25.0511 25.2696C25.6604 24.7756 26.1405 24.1694 26.4914 23.4509C26.8514 22.7234 27.0315 21.8881 27.0315 20.9451C27.0315 20.002 26.8514 19.1668 26.4914 18.4393C26.1405 17.7118 25.6604 17.101 25.0511 16.6071C24.4417 16.1131 23.7308 15.7359 22.9183 15.4754C22.348 15.2905 21.7522 15.1667 21.1307 15.104C21.5545 14.6837 21.9015 14.1967 22.1718 13.6431C22.5319 12.9156 22.7119 12.0804 22.7119 11.1373C22.7119 10.1943 22.5319 9.35899 22.1718 8.6315C21.821 7.904 21.3409 7.29327 20.7315 6.79929C20.1222 6.30531 19.4113 5.9281 18.5988 5.66764C17.7956 5.40717 16.9415 5.26796 16.0367 5.25H9.5V26.7656H12.0621ZM16.0367 14.9499H12.0621V7.29776H16.0367C16.6276 7.30674 17.1723 7.40105 17.6709 7.58067C18.1787 7.7603 18.6173 8.01627 18.9866 8.34858C19.3466 8.6809 19.6282 9.08506 19.8314 9.56107C20.0437 10.0371 20.1499 10.5715 20.1499 11.1643C20.1499 11.757 20.0437 12.2869 19.8314 12.754C19.6282 13.212 19.342 13.6027 18.9727 13.926C18.6034 14.2494 18.1695 14.5008 17.6709 14.6805C17.1723 14.8511 16.6276 14.9409 16.0367 14.9499ZM20.3562 24.7577H16.3816V17.1055H20.3562C20.9471 17.1145 21.4919 17.2088 21.9904 17.3884C22.4982 17.5681 22.9368 17.824 23.3061 18.1563C23.6662 18.4887 23.9478 18.8928 24.1509 19.3688C24.3632 19.8448 24.4694 20.3792 24.4694 20.972C24.4694 21.5648 24.3632 22.0947 24.1509 22.5617C23.9478 23.0198 23.6615 23.4105 23.2922 23.7338C22.9229 24.0571 22.489 24.3086 21.9904 24.4882C21.4919 24.6589 20.9471 24.7487 20.3562 24.7577Z" fill="white"/>
</svg>
